<?xml version="1.0" encoding="UTF-8"?>
<svg id="Layer_2" data-name="Layer 2" xmlns="http://www.w3.org/2000/svg" viewBox="0 0 339.41 242">
  <defs>
    <style>
      .cls-1 {
        fill: #fff;
      }
    </style>
  </defs>
  <g id="Layer_1-2" data-name="Layer 1">
    <g>
      <path class="cls-1" d="M272.47,219.31c-4.9,11.42-14.21,18.58-25.93,21.46-18.47,4.54-38.83-3.63-46.11-21.8l-28.26-70.49c-6.07,28.88-12.79,55.26-32.05,76.56-8.43,8.06-17.51,14.51-29.49,16.42-16.54,2.64-35.69-4.83-42.22-21.47L2.36,51.81C-2.36,39.8.4,26.33,7.03,16.19,13.37,6.49,23.57,1.44,34.86.24c18.33-1.94,34.98,7.85,41.73,25.07l60.36,153.95c10.21-19.06,16.81-76.13,11.04-91.84l-13.29-36.21c-5.28-14.38-1.04-30.59,9.96-41.1C151.66,3.43,160.93.37,170.69.06c16.74-.53,32,8.96,38.18,24.72l63.01,160.61c4.38,11.15,5.57,22.34.6,33.92Z"/>
      <path class="cls-1" d="M274.83,132.91c-3.75-9.17,13.14-7.33,19-27.63,2.6-9.01,3.09-18.52,1.06-27.57-16.02-.15-29.21-8.92-34.6-23.35-4.95-13.23-3.27-27.5,4.57-39.09,5.81-8.59,14.51-13.01,24.57-14.39,18.84-2.58,35.73,6.66,43.65,23.96,15.7,34.3.41,77.08-26.52,100.8-8.34,7.34-27.84,16.77-31.73,7.27Z"/>
    </g>
  </g>
</svg>